<svg width="16" height="16" viewBox="0 0 16 16" fill="none" xmlns="http://www.w3.org/2000/svg">
<g id="facebook" clip-path="url(#clip0_654_3423)">
<path id="Vector" d="M16.0008 8.04927C16.0008 3.60327 12.4188 -0.000732422 8.00078 -0.000732422C3.58078 0.000267578 -0.0012207 3.60327 -0.0012207 8.05027C-0.0012207 12.0673 2.92478 15.3973 6.74878 16.0013V10.3763H4.71878V8.05027H6.75078V6.27527C6.75078 4.25827 7.94578 3.14427 9.77278 3.14427C10.6488 3.14427 11.5638 3.30127 11.5638 3.30127V5.28127H10.5548C9.56178 5.28127 9.25178 5.90227 9.25178 6.53927V8.04927H11.4698L11.1158 10.3753H9.25078V16.0003C13.0748 15.3963 16.0008 12.0663 16.0008 8.04927Z" fill="#3D6DB3"/>
</g>
<defs>
<clipPath id="clip0_654_3423">
<rect width="16" height="16" fill="white"/>
</clipPath>
</defs>
</svg>
